<svg xmlns="http://www.w3.org/2000/svg" width="96.57" height="95.47" viewBox="0 0 96.57 95.47">
  <title>アセット 1</title>
  <g id="レイヤー_2" data-name="レイヤー 2">
    <g id="svg292">
      <g id="レイヤー_2-2" data-name="レイヤー 2">
        <g id="レイヤー_1-2" data-name="レイヤー 1-2">
          <g id="g288">
            <rect id="rect176" width="96.57" height="95.47" rx="6.23" ry="6.23" style="fill: #0e5286"/>
            <g id="g182">
              <path id="path178" d="M7.27,22a.89.89,0,0,1,0,.23,1.86,1.86,0,0,1,1.2-.37,2.11,2.11,0,0,1,1.56.59,2,2,0,0,1,.51,1.46A2.15,2.15,0,0,1,8.09,26.1,2.44,2.44,0,0,1,6,25.2a2.37,2.37,0,0,1-.36-.81l1.46-.23a.89.89,0,0,0,1,.71.94.94,0,0,0,1-.82h0V23.9a.93.93,0,0,0-.87-1H8.1a.92.92,0,0,0-.92.52l-1.35-.07c0-.22,0-.4.07-.6l.2-2.27c0-.2,0-.41,0-.61H9a9.63,9.63,0,0,0,1.2,0v1.28A11.71,11.71,0,0,0,9,21.07H7.36Z" style="fill: #e0dcce"/>
              <path id="path180" d="M13.9,24.2c.06.19.06.19.14.52.08-.33.1-.37.14-.52l1-3.5a4.3,4.3,0,0,0,.18-.79H17.1a6.58,6.58,0,0,0-.35.87l-1.56,4.38A4.66,4.66,0,0,0,15,26h-1.9a4.45,4.45,0,0,0-.23-.79l-1.56-4.4c-.14-.42-.22-.6-.34-.89h1.7a5.32,5.32,0,0,0,.18.79Z" style="fill: #e0dcce"/>
            </g>
            <g id="g190">
              <path id="path184" d="M30.18,23.51a3.48,3.48,0,0,0-.72,0V22.26a6,6,0,0,0,.95,0H31a7.79,7.79,0,0,0,1,0,5.54,5.54,0,0,0,0,1v.81a5.59,5.59,0,0,0,0,1.08,3.66,3.66,0,0,1-.93.46,5.14,5.14,0,0,1-1.56.25,2.94,2.94,0,0,1-2.16-.78,3.38,3.38,0,0,1-.83-2.42,2.84,2.84,0,0,1,3-3.11,2.56,2.56,0,0,1,2.08.86,2.15,2.15,0,0,1,.42.79l-1.48.35a.94.94,0,0,0-.32-.52,1.18,1.18,0,0,0-.74-.23c-.93,0-1.44.68-1.44,1.9a2.18,2.18,0,0,0,.44,1.52,1.39,1.39,0,0,0,1,.4,2.36,2.36,0,0,0,1-.27v-.82Z" style="fill: #e0dcce"/>
              <path id="path186" d="M36.24,22.64a9.52,9.52,0,0,1,.52.87c0-.34,0-.67,0-1.08V20.78a8.26,8.26,0,0,0-.06-1.11h1.56a6.89,6.89,0,0,0-.06,1.11v3.86a9.77,9.77,0,0,0,.06,1.08h-1.6a5.57,5.57,0,0,0-.52-.92l-1.37-2.05a7.94,7.94,0,0,1-.52-.89c0,.36,0,.72,0,1.08v1.63a8.47,8.47,0,0,0,.05,1.13H32.75a7.07,7.07,0,0,0,.06-1.13V20.74a9.82,9.82,0,0,0-.06-1.09h1.56a5.48,5.48,0,0,0,.52.91Z" style="fill: #e0dcce"/>
              <path id="path188" d="M39.18,20.72a5.45,5.45,0,0,0-.07-1.07h2.6a2.84,2.84,0,0,1,2.08.72,3,3,0,0,1,.8,2.25A3.22,3.22,0,0,1,43.75,25a2.82,2.82,0,0,1-2,.73H40.2c-.57,0-.77,0-1.07,0a7.53,7.53,0,0,0,0-1.06Zm2.42,3.73a1.47,1.47,0,0,0,1.07-.39,2,2,0,0,0,.44-1.4,1.81,1.81,0,0,0-.42-1.35,1.46,1.46,0,0,0-1.13-.37h-.94v3.51Z" style="fill: #e0dcce"/>
            </g>
            <g id="g196">
              <path id="path192" d="M52.37,26a9.63,9.63,0,0,0-1.2,0H47.79a6.28,6.28,0,0,0,.06-1.06v-4a8.89,8.89,0,0,0-.06-1h3.39a9.77,9.77,0,0,0,1.08-.06V21.2a9.75,9.75,0,0,0-1.08,0H49.31v1.07h1.56a9.93,9.93,0,0,0,1.09,0v1.34a8,8,0,0,0-1.09-.05H49.31V24.7h1.88a9.32,9.32,0,0,0,1.18-.05Z" style="fill: #e0dcce"/>
              <path id="path194" d="M56.59,22.89c.19.28.36.57.52.86,0-.33,0-.67,0-1.07V21A8.27,8.27,0,0,0,57,19.91h1.56A8.25,8.25,0,0,0,58.51,21v3.86A8,8,0,0,0,58.56,26H57a6.1,6.1,0,0,0-.52-.93l-1.34-2a9.85,9.85,0,0,1-.52-.89,9.76,9.76,0,0,1,0,1.08v1.63A7.26,7.26,0,0,0,54.7,26H53.14a7.26,7.26,0,0,0,.06-1.14V21a9.82,9.82,0,0,0-.06-1.09H54.7a4.56,4.56,0,0,0,.52.91Z" style="fill: #e0dcce"/>
            </g>
            <rect id="rect198" x="5.74" y="3.82" width="11.27" height="13" style="fill: #3e453c"/>
            <rect id="rect200" x="24.84" y="3.8" width="11.27" height="13" style="fill: #3e453c"/>
            <rect id="rect202" x="44.2" y="3.81" width="11.27" height="13" style="fill: #3e453c"/>
            <rect id="rect204" x="18.57" y="25.04" width="6.43" height="7.56" rx="2.26" ry="2.26" style="fill: #a3a8a4"/>
            <rect id="rect206" x="64.27" y="3.51" width="6.46" height="4.97" rx="1.76" ry="1.76" style="fill: #a3a8a4"/>
            <rect id="rect208" x="79.73" y="25.14" width="6.43" height="7.56" rx="2.26" ry="2.26" style="fill: #a3a8a4"/>
            <rect id="rect210" x="41.06" y="82.42" width="6.43" height="7.56" rx="2.26" ry="2.26" style="fill: #a3a8a4"/>
            <rect id="rect212" x="80.4" y="82.36" width="6.43" height="7.56" rx="2.26" ry="2.26" style="fill: #a3a8a4"/>
            <rect id="rect214" x="10.73" y="30.9" width="83.35" height="53.88" style="fill: #e0dcce"/>
            <rect id="rect216" x="64.57" y="15.61" width="6.46" height="4.97" rx="1.76" ry="1.76" style="fill: #a3a8a4"/>
            <rect id="rect218" x="74.96" y="9.69" width="6.46" height="4.97" rx="1.76" ry="1.76" style="fill: #a3a8a4"/>
            <rect id="rect220" x="69.39" y="1.4" width="7.21" height="21.7" style="fill: #3e453c"/>
            <g id="g232">
              <path id="path222" d="M16.49,43.48a3.11,3.11,0,0,1-2.35-.88,3.69,3.69,0,0,1-.86-2.6,3.72,3.72,0,0,1,.84-2.6,2.94,2.94,0,0,1,2.34-.92,7.45,7.45,0,0,1,1.16.08.61.61,0,0,1,.37.23.66.66,0,0,1,.15.42v.11a.35.35,0,0,1-.17.31.41.41,0,0,1-.34.06,4.55,4.55,0,0,0-1-.12,1.81,1.81,0,0,0-1.45.64A2.77,2.77,0,0,0,14.62,40a2.72,2.72,0,0,0,.52,1.81,1.79,1.79,0,0,0,1.48.62,4.55,4.55,0,0,0,1-.12.44.44,0,0,1,.35.07.38.38,0,0,1,.17.3v.07a.66.66,0,0,1-.15.42.57.57,0,0,1-.38.22A6.4,6.4,0,0,1,16.49,43.48Z" style="fill: #a79c86"/>
              <path id="path224" d="M19.68,43.39a.52.52,0,0,1-.37-.16.56.56,0,0,1-.15-.37V37.1a.54.54,0,0,1,.15-.38.52.52,0,0,1,.37-.16h.26a.52.52,0,0,1,.37.16.55.55,0,0,1,.16.38v2.11s0,.07,0,.07h2.35a.08.08,0,0,0,.08-.06V37.1a.54.54,0,0,1,.15-.38.55.55,0,0,1,.38-.16h.24a.51.51,0,0,1,.37.16.54.54,0,0,1,.15.38v5.76a.5.5,0,0,1-.15.37.52.52,0,0,1-.37.16h-.23a.52.52,0,0,1-.52-.52V40.39a.09.09,0,0,0-.06-.09H20.54c-.05,0-.07,0-.07.09v2.48a.51.51,0,0,1-.16.37.52.52,0,0,1-.37.16Z" style="fill: #a79c86"/>
              <path id="path226" d="M26,43.39a.56.56,0,0,1-.52-.52V37.1a.56.56,0,0,1,.52-.52h.38a.52.52,0,0,1,.37.16.55.55,0,0,1,.16.38v5.76a.55.55,0,0,1-.16.38.56.56,0,0,1-.37.15Z" style="fill: #a79c86"/>
              <path id="path228" d="M28.61,43.39a.51.51,0,0,1-.37-.16.48.48,0,0,1-.15-.37V37.1a.5.5,0,0,1,.15-.38.52.52,0,0,1,.37-.16h.21a.83.83,0,0,1,.78.47l2.32,4.16h0v-4.1a.47.47,0,0,1,.16-.38.51.51,0,0,1,.37-.16h.2a.55.55,0,0,1,.38.16.58.58,0,0,1,.15.38v5.76a.52.52,0,0,1-.52.52h-.21a.81.81,0,0,1-.78-.47l-2.32-4.15h0v4.11a.51.51,0,0,1-.52.51Z" style="fill: #a79c86"/>
              <path id="path230" d="M34.06,43.39a.39.39,0,0,1-.32-.16.32.32,0,0,1,0-.34l1.93-5.82a.91.91,0,0,1,.27-.37.74.74,0,0,1,.43-.14h.33a.72.72,0,0,1,.7.52L39.3,42.9a.35.35,0,0,1,0,.34.36.36,0,0,1-.31.16h-.34a.66.66,0,0,1-.41-.14.72.72,0,0,1-.26-.37l-.3-1c0-.05,0-.08-.11-.08H35.42a.11.11,0,0,0-.1.08l-.3,1a.59.59,0,0,1-.25.37.65.65,0,0,1-.42.14Zm2.41-5.67-.79,2.94a0,0,0,0,0,0,.05s0,0,0,0h1.56a.05.05,0,0,0,0,0,0,0,0,0,0,0-.05l-.82-2.94Z" style="fill: #a79c86"/>
            </g>
            <g id="g246">
              <path id="path234" d="M25.81,69a4,4,0,0,1-2.95-1.15,4.92,4.92,0,0,1,0-6.28A4.13,4.13,0,0,1,26,60.41a8.42,8.42,0,0,1,1.5.11.78.78,0,0,1,.46.27.88.88,0,0,1,.18.52v0a.48.48,0,0,1-.2.4.54.54,0,0,1-.43.09,6,6,0,0,0-1.34-.15,2.71,2.71,0,0,0-2.07.76,3.13,3.13,0,0,0-.72,2.25,3.19,3.19,0,0,0,.71,2.24,2.39,2.39,0,0,0,1.91.79,3.17,3.17,0,0,0,1-.15.11.11,0,0,0,.09-.12V65.19c0-.07,0-.1-.09-.1H25.49a.62.62,0,0,1-.44-.18.52.52,0,0,1-.17-.42.6.6,0,0,1,.61-.63h2.4a.66.66,0,0,1,.46.19.69.69,0,0,1,.18.47v3.33a.92.92,0,0,1-.17.52.89.89,0,0,1-.44.32A7.47,7.47,0,0,1,25.81,69Z" style="fill: #a79c86"/>
              <path id="path236" d="M32.49,69q-3.12,0-3.12-3.77a5.69,5.69,0,0,1,.95-3.6A3.21,3.21,0,0,1,33,60.41a6.35,6.35,0,0,1,1.07.09.65.65,0,0,1,.45.27.87.87,0,0,1,.17.52.44.44,0,0,1-.18.38.5.5,0,0,1-.43.08,4.55,4.55,0,0,0-1-.12,1.88,1.88,0,0,0-1.38.57A2.63,2.63,0,0,0,31,63.84h0a2.59,2.59,0,0,1,1.79-.59,2.78,2.78,0,0,1,2.08.73,2.65,2.65,0,0,1,.74,2,2.83,2.83,0,0,1-.84,2.18A3.25,3.25,0,0,1,32.49,69Zm0-4.58a1.46,1.46,0,0,0-1.12.44A1.66,1.66,0,0,0,30.94,66a1.77,1.77,0,0,0,.43,1.27,1.43,1.43,0,0,0,1.12.46,1.52,1.52,0,0,0,1.14-.44A1.83,1.83,0,0,0,34.05,66a1.7,1.7,0,0,0-.42-1.2,1.56,1.56,0,0,0-1.14-.42Z" style="fill: #a79c86"/>
              <path id="path238" d="M38.79,68.87a.64.64,0,0,1-.45-.19.71.71,0,0,1-.18-.45v-7a.68.68,0,0,1,.19-.47.6.6,0,0,1,.44-.19h.37a.66.66,0,0,1,.65.66v6.23c0,.07,0,.1.1.1h2.93a.66.66,0,0,1,.46.19.61.61,0,0,1,.18.46v0a.65.65,0,0,1-.64.65Z" style="fill: #a79c86"/>
              <path id="path240" d="M46.23,66.16A.61.61,0,0,1,45.8,66a.55.55,0,0,1-.18-.43.6.6,0,0,1,.18-.43.64.64,0,0,1,.43-.2h2.6a.67.67,0,0,1,.44.18.59.59,0,0,1,.19.43.52.52,0,0,1-.19.43.66.66,0,0,1-.44.17Z" style="fill: #a79c86"/>
              <path id="path242" d="M53.1,63.6a.27.27,0,0,1-.33,0,.31.31,0,0,1-.19-.29v-.46a1.26,1.26,0,0,1,.52-1l1.22-.93a1.9,1.9,0,0,1,1.17-.4h.34a.66.66,0,0,1,.64.66v7.05a.56.56,0,0,1-.19.45.64.64,0,0,1-.45.19h-.34a.64.64,0,0,1-.46-.19.61.61,0,0,1-.2-.45V62.29h0Z" style="fill: #a79c86"/>
              <path id="path244" d="M61.4,68.87a.64.64,0,0,1-.45-.19.64.64,0,0,1-.18-.45v-7a.6.6,0,0,1,.19-.47.6.6,0,0,1,.44-.19h3.78a.68.68,0,0,1,.66.65.69.69,0,0,1-.66.65H62.45a.08.08,0,0,0-.09.09v2a.08.08,0,0,0,.09.09H65a.61.61,0,0,1,.62.59h0a.56.56,0,0,1-.19.43.57.57,0,0,1-.43.17H62.45a.11.11,0,0,0-.09.09V68.2a.65.65,0,0,1-.64.65Z" style="fill: #a79c86"/>
            </g>
            <g id="g256">
              <path id="path248" d="M27.82,80.62a.83.83,0,0,1-.46-.3.87.87,0,0,1-.17-.52v-.11a.45.45,0,0,1,.47-.45h.12a5.37,5.37,0,0,0,1.49.27c1.2,0,1.81-.55,1.8-1.65,0-.91-.43-1.37-1.31-1.37a1.84,1.84,0,0,0-.65.13,4,4,0,0,1-1.17.34h-.08a.62.62,0,0,1-.45-.19.54.54,0,0,1-.17-.46L27.41,73a.75.75,0,0,1,.21-.47.66.66,0,0,1,.46-.19h3.57a.59.59,0,0,1,.45.2.64.64,0,0,1,.19.45.67.67,0,0,1-.64.65H29a.08.08,0,0,0-.1.06v0h0l-.1,1.81h0a3,3,0,0,1,3.15.41,2.58,2.58,0,0,1,.68,1.91c0,2-1.12,2.93-3.35,2.93A7.07,7.07,0,0,1,27.82,80.62Z" style="fill: #a79c86"/>
              <path id="path250" d="M35.07,80.18l-1.93-5.82a.36.36,0,0,1,0-.35.38.38,0,0,1,.31-.16h.33a.66.66,0,0,1,.43.15.65.65,0,0,1,.26.37l1.43,5h0l1.45-5a.68.68,0,0,1,.25-.37.74.74,0,0,1,.43-.14h.3a.31.31,0,0,1,.3.16.34.34,0,0,1,0,.35l-1.93,5.82a.69.69,0,0,1-.27.36.74.74,0,0,1-.43.14h-.34a.76.76,0,0,1-.43-.14A.7.7,0,0,1,35.07,80.18Z" style="fill: #a79c86"/>
              <path id="path252" d="M39.79,80.68a.52.52,0,0,1-.52-.52V74.4a.46.46,0,0,1,.16-.38.51.51,0,0,1,.37-.16h1.12a3.86,3.86,0,0,1,2.71.86,3.13,3.13,0,0,1,.93,2.47,3.4,3.4,0,0,1-.93,2.59,3.8,3.8,0,0,1-2.72.89ZM40.55,75v4.58s0,.07.08.07H41A2.31,2.31,0,0,0,42.76,79a2.63,2.63,0,0,0,.56-1.87,2.3,2.3,0,0,0-.57-1.72A2.33,2.33,0,0,0,41,74.9h-.4a.06.06,0,0,0-.08,0v0Z" style="fill: #a79c86"/>
              <path id="path254" d="M48,80.77a3,3,0,0,1-2.34-.91,3.63,3.63,0,0,1-.87-2.6,3.7,3.7,0,0,1,.84-2.59A3,3,0,0,1,48,73.76a6.41,6.41,0,0,1,1.16.09.53.53,0,0,1,.37.22.61.61,0,0,1,.15.43v.07a.34.34,0,0,1-.16.31.43.43,0,0,1-.35.06,4.55,4.55,0,0,0-1-.12,1.81,1.81,0,0,0-1.45.64,3.36,3.36,0,0,0,0,3.63,1.82,1.82,0,0,0,1.46.65,4.55,4.55,0,0,0,1-.12.43.43,0,0,1,.35.06.38.38,0,0,1,.16.31v.06a.58.58,0,0,1-.14.42.63.63,0,0,1-.38.23A9.18,9.18,0,0,1,48,80.77Z" style="fill: #a79c86"/>
            </g>
            <g id="g268">
              <path id="path258" d="M60,76.36a.26.26,0,0,1-.37,0h0a.25.25,0,0,1-.06-.16v-.37a1,1,0,0,1,.43-.85l1-.77a1.61,1.61,0,0,1,1-.32h.28a.52.52,0,0,1,.37.16.55.55,0,0,1,.16.38v5.76a.52.52,0,0,1-.52.52H62a.55.55,0,0,1-.38-.16.51.51,0,0,1-.15-.37V75.32h0Z" style="fill: #a79c86"/>
              <path id="path260" d="M69.12,75.76a3,3,0,0,1-.55,1.69,12.56,12.56,0,0,1-2.16,2.15h2.21a.5.5,0,0,1,.37.15.52.52,0,0,1,.16.37.51.51,0,0,1-.16.37.48.48,0,0,1-.37.17H65.19a.52.52,0,0,1-.37-.17.49.49,0,0,1-.15-.36,1,1,0,0,1,.4-.86,14.25,14.25,0,0,0,2.17-2,2.33,2.33,0,0,0,.55-1.42c0-.7-.37-1-1.11-1a3.81,3.81,0,0,0-1.38.32.34.34,0,0,1-.34,0,.34.34,0,0,1-.16-.29v-.16a.82.82,0,0,1,.14-.45.7.7,0,0,1,.37-.26,5.44,5.44,0,0,1,1.55-.23,2.46,2.46,0,0,1,1.68.52A1.87,1.87,0,0,1,69.12,75.76Z" style="fill: #a79c86"/>
              <path id="path262" d="M71.93,79.73a1.49,1.49,0,0,0,1-.28,1,1,0,0,0,.34-.79.8.8,0,0,0-.41-.75,3.18,3.18,0,0,0-1.43-.24.53.53,0,0,1-.51-.53.46.46,0,0,1,.15-.36.54.54,0,0,1,.38-.15c1.14,0,1.72-.35,1.72-1s-.4-.79-1.2-.79a4,4,0,0,0-1.41.27.37.37,0,0,1-.34,0,.31.31,0,0,1-.16-.28v-.09a.77.77,0,0,1,.14-.44.62.62,0,0,1,.37-.26,5.42,5.42,0,0,1,1.6-.22,2.75,2.75,0,0,1,1.67.44,1.41,1.41,0,0,1,.6,1.17,1.62,1.62,0,0,1-.33,1.07,2.07,2.07,0,0,1-1,.62h0a1.88,1.88,0,0,1,1.13.52,1.55,1.55,0,0,1,.39,1.11,1.81,1.81,0,0,1-.68,1.51,2.92,2.92,0,0,1-1.88.52,5.65,5.65,0,0,1-1.53-.21.6.6,0,0,1-.36-.26.76.76,0,0,1-.16-.37v-.1a.37.37,0,0,1,.37-.35.2.2,0,0,1,.11,0A4.45,4.45,0,0,0,71.93,79.73Z" style="fill: #a79c86"/>
              <path id="path264" d="M75.09,79.28a.5.5,0,0,1-.37-.14.46.46,0,0,1-.15-.36,1.51,1.51,0,0,1,.3-.94l2.48-3.54a1,1,0,0,1,.84-.44h.2a.55.55,0,0,1,.38.16.54.54,0,0,1,.15.38v3.78s0,.07.06.08h.47a.51.51,0,0,1,.37.15.5.5,0,0,1,.14.37.44.44,0,0,1-.15.36.47.47,0,0,1-.36.14H79s-.07,0-.08.1v.78a.51.51,0,0,1-.53.53h-.2a.55.55,0,0,1-.38-.16.57.57,0,0,1-.16-.37v-.79c0-.06,0-.09-.07-.1Zm.7-1h1.79s.07,0,.07-.09V75.57h0Z" style="fill: #a79c86"/>
              <path id="path266" d="M83.25,80.78a3,3,0,0,1-2.34-.91,3.66,3.66,0,0,1-.86-2.6,3.72,3.72,0,0,1,.83-2.59,3,3,0,0,1,2.35-.93,7.65,7.65,0,0,1,1.16.09.57.57,0,0,1,.37.22.71.71,0,0,1,.14.42v.08a.34.34,0,0,1-.16.31.42.42,0,0,1-.34.06,4.55,4.55,0,0,0-1-.12,1.81,1.81,0,0,0-1.46.64,2.77,2.77,0,0,0-.52,1.81,2.72,2.72,0,0,0,.52,1.81,1.82,1.82,0,0,0,1.46.65,4.55,4.55,0,0,0,1-.12.4.4,0,0,1,.35.07.36.36,0,0,1,.17.3V80a.79.79,0,0,1-.15.42.57.57,0,0,1-.38.22A7.31,7.31,0,0,1,83.25,80.78Z" style="fill: #a79c86"/>
            </g>
            <path id="path270" d="M15.63,46.9h0a3.47,3.47,0,0,1,3.47,3.47V67.48a3.47,3.47,0,0,1-3.47,3.46h0a3.46,3.46,0,0,1-3.46-3.46V50.39a3.46,3.46,0,0,1,3.44-3.49Z" style="fill: #a79c86"/>
            <g id="g282">
              <path id="path272" d="M26,57.14A4.16,4.16,0,1,1,30.17,53,4.15,4.15,0,0,1,26,57.14Zm0-1.74A2.42,2.42,0,1,0,23.61,53,2.42,2.42,0,0,0,26,55.4h0" style="fill: #a79c86"/>
              <path id="path274" d="M51.51,57.14A4.16,4.16,0,1,1,55.67,53,4.15,4.15,0,0,1,51.51,57.14Zm0-1.74A2.42,2.42,0,1,0,49.11,53a2.42,2.42,0,0,0,2.4,2.43h0" style="fill: #a79c86"/>
              <path id="path276" d="M30.65,49.07v7.86h1.73v-6.4H34.3v6.4H36v-6.4h.67a1.21,1.21,0,0,1,1.24,1.18h0V56.9h1.73V51.78A2.76,2.76,0,0,0,36.93,49h-4.5a17.45,17.45,0,0,0-1.77.06" style="fill: #a79c86"/>
              <path id="path278" d="M56.16,49.07v7.86h1.73v-6.4h2a1.22,1.22,0,0,1,1.23,1.2v5.19h1.73V51.78A2.76,2.76,0,0,0,60.07,49H57.89a16.57,16.57,0,0,0-1.73.06" style="fill: #a79c86"/>
              <path id="path280" d="M40.4,49.07v7.86h1.74v-6.4h2A1.21,1.21,0,0,1,44.35,53H42.71l2.68,4h2.15l-2-2.87a2.43,2.43,0,0,0,1.56-2.33A2.71,2.71,0,0,0,44.43,49H42.12a16.57,16.57,0,0,0-1.73.06" style="fill: #a79c86"/>
            </g>
            <path id="path284" d="M78.71,41.2A3.31,3.31,0,0,0,79.32,40h-1v3.11a4,4,0,0,1-1.31.41V35.16h0A4.21,4.21,0,0,1,79.61,42Zm-.42-2.54h1a3.13,3.13,0,0,0-1-1.69v1.69m-5.94,1.7a4.21,4.21,0,0,0,3.5,3.11V39.6l-2-1.89a3.14,3.14,0,0,1,.72-.78v.7h1.25V35.14a4.23,4.23,0,0,0-3.49,3l2.19,2v1.56a3,3,0,0,1-1-1.64l-1.15.34m4.06-7.71a6.66,6.66,0,1,0,5.1,10.91l-1.29-1.12a4.94,4.94,0,0,1-8.73-3.16h0a5,5,0,0,1,8.76-3.15l1.28-1.09a6.67,6.67,0,0,0-5.12-2.4Z" style="fill: #a79c86"/>
            <path id="path286" d="M81.64,56.24a1.07,1.07,0,0,0-.14-.52h0L78.7,48H75.79l2.35,6.49H76.51L74.12,48H67.21a1,1,0,0,0-.93,1.5l1.22,3.44a1,1,0,0,0,1,.85H69.8L69,57.28h2.92l.81-3.56h.52l1.28,3.53H80.6a1,1,0,0,0,1-1M70,51.61l-.56-1.56h2.54l.57,1.56H70" style="fill: #a79c86"/>
          </g>
        </g>
      </g>
    </g>
  </g>
</svg>
